<?xml version="1.0" standalone="no"?>
<!DOCTYPE svg PUBLIC "-//W3C//DTD SVG 20010904//EN"
 "http://www.w3.org/TR/2001/REC-SVG-20010904/DTD/svg10.dtd">
<svg version="1.0" xmlns="http://www.w3.org/2000/svg"
 width="512.000000pt" height="512.000000pt" viewBox="0 0 512.000000 512.000000"
 preserveAspectRatio="xMidYMid meet">

<g transform="translate(0.000000,512.000000) scale(0.100000,-0.100000)"
fill="#000000" stroke="none">
<path d="M2924 3916 c-172 -54 -261 -251 -194 -429 19 -52 48 -86 232 -278
116 -121 233 -244 260 -274 l50 -55 -1124 -2 -1123 -3 -51 -27 c-60 -32 -118
-93 -148 -157 -30 -65 -30 -197 0 -262 30 -64 88 -125 148 -157 l51 -27 1123
-5 1124 -5 -255 -267 c-170 -178 -262 -282 -278 -315 -20 -40 -24 -63 -24
-143 0 -79 4 -103 23 -142 90 -182 311 -232 462 -105 69 59 1039 1081 1072
1130 56 84 62 213 14 310 -19 39 -158 190 -546 597 -286 300 -537 557 -557
573 -70 52 -174 69 -259 43z"/>
</g>
</svg>
